<svg width="66" height="46" viewBox="0 0 66 46" fill="none" xmlns="http://www.w3.org/2000/svg">
<path d="M54.5501 8.01022L54.5401 8.00022C54.5209 7.9857 54.5008 7.97235 54.4801 7.96021L54.4601 7.94022C48.4821 2.81311 40.8656 -0.00361396 32.9901 0.0002154C28.0049 -0.0179061 23.082 1.10762 18.6 3.29022C18.58 3.30022 18.57 3.30021 18.55 3.31021C13.0426 5.97406 8.38822 10.1225 5.11091 15.2885C1.8336 20.4544 0.0635472 26.4327 5.0017e-05 32.5502C-0.00256711 32.8121 0.0976122 33.0646 0.279081 33.2535C0.460549 33.4424 0.708839 33.5526 0.970644 33.5604C1.23245 33.5683 1.4869 33.4732 1.67936 33.2955C1.87183 33.1178 1.98696 32.8718 2.00005 32.6102C2.15005 29.8402 3.67005 16.0002 18.99 16.0002C25.4 16.0002 30.1301 18.3602 33.0601 23.0302C33.083 23.0757 33.1098 23.1192 33.1401 23.1602C34.8767 26.1594 35.855 29.5371 35.9901 33.0002C35.9908 33.2652 36.0965 33.5191 36.2838 33.7064C36.4712 33.8938 36.7251 33.9994 36.9901 34.0002H64.9901C65.255 33.9994 65.5089 33.8938 65.6963 33.7064C65.8836 33.5191 65.9893 33.2652 65.9901 33.0002C65.991 28.2574 64.9696 23.57 62.9954 19.2576C61.0213 14.9451 58.1407 11.1089 54.5501 8.01022ZM18.99 14.0002C18.65 14.0002 18.32 14.0102 17.99 14.0202V5.86022C18.46 5.60022 18.9401 5.35022 19.43 5.11022C19.6201 5.02022 19.8 4.93022 19.99 4.85022V14.0202C19.66 14.0102 19.33 14.0002 18.99 14.0002ZM34.8101 22.0602C34.6301 21.7602 34.4301 21.4702 34.2301 21.1902L52.2101 8.67022C52.5501 8.94022 52.8801 9.22022 53.2101 9.50022C53.4001 9.67022 53.5901 9.83022 53.7801 10.0102L35.2901 22.8802C35.14 22.6102 34.98 22.3302 34.8101 22.0602Z" fill="#9EFF00"/>
<path d="M31.1102 29.0102L23.6102 28.0702L19.8602 21.5002C19.7646 21.3571 19.6352 21.2398 19.4834 21.1587C19.3317 21.0776 19.1623 21.0352 18.9902 21.0352C18.8181 21.0352 18.6487 21.0776 18.497 21.1587C18.3452 21.2398 18.2158 21.3571 18.1202 21.5002L14.3702 28.0702L6.8702 29.0102C6.69105 29.0322 6.5212 29.1022 6.37866 29.213C6.23613 29.3237 6.12622 29.471 6.0606 29.6391C5.99499 29.8072 5.97611 29.99 6.00597 30.168C6.03582 30.346 6.11331 30.5126 6.2302 30.6502L11.8902 37.2602L10.0202 44.7602C9.97299 44.9459 9.98041 45.1413 10.0416 45.323C10.1028 45.5046 10.2151 45.6647 10.365 45.784C10.515 45.9034 10.6962 45.9769 10.887 45.9957C11.0777 46.0145 11.2698 45.9779 11.4402 45.8902L18.9902 42.1202L26.5402 45.8902C26.6782 45.9651 26.8332 46.003 26.9902 46.0002C27.1422 46.0011 27.2924 45.9672 27.4293 45.901C27.5662 45.8348 27.686 45.7381 27.7797 45.6184C27.8734 45.4986 27.9384 45.359 27.9696 45.2102C28.0009 45.0615 27.9977 44.9075 27.9602 44.7602L26.0902 37.2602L31.7502 30.6502C31.8671 30.5126 31.9446 30.346 31.9744 30.168C32.0043 29.99 31.9854 29.8072 31.9198 29.6391C31.8542 29.471 31.7443 29.3237 31.6017 29.213C31.4592 29.1022 31.2893 29.0322 31.1102 29.0102Z" fill="#FAFF00"/>
</svg>
