<svg width="207" height="65" viewBox="0 0 207 65" fill="none" xmlns="http://www.w3.org/2000/svg">
<path fill-rule="evenodd" clip-rule="evenodd" d="M0 0.986435C14.2695 0.329462 24.5182 0.000976562 30.7463 0.000976562C42.3354 0.000976562 50.6526 1.31492 55.6982 3.94281C60.2182 6.30792 62.4781 9.89499 62.4781 14.704C62.4781 17.5947 61.7161 20.0255 60.1919 21.9964C58.694 23.9411 56.3946 25.6229 53.2937 27.042C57.1829 28.3559 60.1787 30.2217 62.2811 32.6394C65.0403 35.8192 66.42 40.1815 66.42 45.7263C66.42 57.6832 57.1698 64.0033 38.6694 64.6866C36.0153 64.7917 33.9524 64.8442 32.4808 64.8442C31.0091 64.8442 29.7346 64.8311 28.6572 64.8048C27.5797 64.7785 26.3446 64.7391 24.9518 64.6866C23.5853 64.6603 22.0874 64.6209 20.4581 64.5683C19.0939 64.5459 17.7106 64.5045 16.3083 64.4441C16.4094 64.3156 16.4607 64.1606 16.4607 63.9805C16.4607 63.5386 16.2214 63.0965 15.896 62.9373C15.7379 62.8599 15.6001 62.8647 15.2755 62.9589C14.8487 63.0828 14.5912 63.0598 14.3484 62.8759C14.0698 62.6649 13.8569 62.2314 13.4875 61.1222C13.2717 60.4744 13.1668 60.002 13.114 59.4403C13.0816 59.0959 13.1011 58.4029 13.1522 58.0823C13.2601 57.4052 13.4877 56.7616 13.7752 56.3204C14.1249 55.7839 14.4597 55.4075 15.686 54.1725C16.7832 53.0676 16.9535 52.8837 17.2019 52.5357C17.6048 51.9711 17.8293 51.5041 18.4828 49.8708C18.8294 49.0047 18.9576 48.6633 19.0291 48.4155L19.0737 48.261L19.5572 48.7743C20.0358 49.2825 20.4888 49.7285 20.9153 50.1114C21.455 50.5959 21.7688 50.8021 22.7369 51.3084C24.1075 52.0252 24.9308 52.3481 26.6245 52.8329C28.0751 53.2482 28.6312 53.284 28.9728 52.984C29.142 52.8353 29.2581 52.4595 29.5741 51.0371C29.7493 50.2481 29.7817 50.1277 29.8708 49.9339C29.9906 49.6733 30.0855 49.5902 30.2419 49.6093C30.3326 49.6204 30.7102 49.7553 30.8017 49.8093C30.8304 49.8263 30.8626 49.8651 30.8732 49.8956C30.9142 50.0131 30.8437 50.182 30.5455 50.6809C30.2074 51.2467 30.1136 51.4847 29.9682 52.146C29.702 53.3565 29.6228 54.0459 29.6223 55.1571C29.622 55.9051 29.6375 56.158 29.7192 56.7344C29.8685 57.7879 30.1462 58.7986 30.6371 60.0751C30.8828 60.714 30.9856 60.889 31.585 61.6889C32.3102 62.6567 32.641 63.1462 32.8207 63.5179C32.8979 63.6776 32.9102 63.7198 32.9119 63.8293C32.913 63.8989 32.92 63.9658 32.9275 63.9778C32.9672 64.0422 33.0638 64.0622 33.4063 64.0772C33.6291 64.087 33.9438 64.1194 34.2959 64.1689C34.5955 64.2111 34.9267 64.2559 35.0318 64.2684C35.2814 64.2981 35.7467 64.2994 35.892 64.2707C36.0682 64.236 36.2375 64.1449 36.299 64.0519C36.3458 63.9811 36.3508 63.9567 36.3508 63.7991C36.3508 63.636 36.3461 63.6152 36.2791 63.4795C36.028 62.9715 35.1955 62.722 34.4106 62.9196C34.3002 62.9474 34.1449 62.9749 34.0655 62.9807C33.8128 62.9991 33.7787 62.9647 33.5034 62.4141C33.1675 61.7423 33.0549 61.4545 32.9796 61.0744C32.8126 60.2317 32.8005 59.1605 32.9489 58.3609C33.0627 57.7476 33.2802 57.1455 33.5993 56.5602C34.2283 55.4063 35.1947 54.065 36.2431 52.8906C36.3871 52.7293 36.3914 52.7264 36.5707 52.6636C38.0059 52.1608 39.5019 51.2776 40.5618 50.3073C42.0595 48.9362 42.7032 47.0503 42.6425 44.2117C42.6104 42.7119 42.3701 40.0743 42.1426 38.7246C42.1169 38.5722 42.032 38.1334 41.954 37.7496C41.7492 36.7426 41.7133 36.412 41.7131 35.5318C41.713 34.9877 41.7301 34.7283 41.7922 34.3372C41.8758 33.8102 42.0149 33.3518 42.2518 32.8223C42.3814 32.5326 42.8731 31.5534 43.2193 30.8955C43.7619 29.8646 44.0035 29.2744 44.1485 28.6262C44.2322 28.2522 44.2598 28.0136 44.261 27.6549C44.262 27.3351 44.2406 27.1615 44.168 26.8986C44.1599 26.8691 44.1695 26.8536 44.2062 26.8369C44.2332 26.8246 44.2553 26.8051 44.2553 26.7935C44.2553 26.782 44.2212 26.7151 44.1795 26.645C44.051 26.4282 44.037 26.336 44.0619 25.8677C44.0857 25.4189 44.0946 25.3248 44.0544 25.2621C44.04 25.2396 44.0193 25.2211 43.9907 25.1917C43.9398 25.1395 43.8516 25.0723 43.7948 25.0425C43.7033 24.9945 43.6712 24.9882 43.5179 24.988C43.352 24.9878 43.3371 24.9914 43.1801 25.0693C42.9648 25.1759 42.8722 25.2746 42.487 25.8071C42.4451 25.8651 42.3885 25.907 42.2768 25.9629C42.1651 26.0187 42.1222 26.0505 42.118 26.0805C42.1117 26.1246 42.0059 26.1792 41.8467 26.2207C41.7993 26.233 41.6918 26.2799 41.6077 26.3248C40.9207 26.6918 40.0666 26.9144 39.4573 26.885C39.3468 26.8797 39.0907 26.8443 38.8882 26.8064C38.6856 26.7684 38.3544 26.7157 38.1522 26.6891C37.5823 26.6142 37.3118 26.568 37.0008 26.4923C36.7549 26.4324 36.6827 26.4225 36.4942 26.4228C36.3363 26.423 36.2393 26.4333 36.1501 26.4591C35.9451 26.5186 35.5689 26.6742 35.2039 26.8504C34.5981 27.1429 34.4749 27.2206 33.0629 28.1991C31.8052 29.0707 31.4435 29.2752 30.932 29.4037C30.6645 29.4709 30.4873 29.4903 30.1397 29.4903C29.8677 29.4903 29.7821 29.4819 29.4577 29.4234C28.2032 29.1972 27.3662 29.1245 26.8273 29.1947C26.4564 29.243 25.8084 29.4056 25.8084 29.4503C25.8084 29.4836 25.9479 29.8108 26.029 29.9676C26.3134 30.5179 26.709 30.9759 27.2516 31.3833C27.9258 31.8894 28.4133 32.1255 28.9871 32.2236C29.2944 32.2761 29.8517 32.3067 30.309 32.2962L30.6925 32.2873L31.0653 32.1898C31.5235 32.0701 31.9184 31.9889 31.9747 32.003C32.0957 32.0334 32.0339 32.1791 31.7503 32.5317C31.6637 32.6395 31.503 32.8166 31.3933 32.9254L31.1939 33.1232L31.3469 33.3477C31.8211 34.0436 32.1287 34.7425 32.3374 35.5987C32.4969 36.2528 32.5482 36.6973 32.5315 37.279C32.5189 37.7172 32.4885 37.9479 32.3915 38.3423C32.1325 39.3948 31.5295 40.3291 30.6256 41.0785C29.5875 41.9392 28.7006 42.3355 27.0198 42.6896C25.9897 42.9066 24.6092 42.9659 23.4285 42.8438C21.8957 42.6853 20.9692 42.4907 20.0927 42.1431C19.1317 41.7619 18.175 41.1351 17.3999 40.3788C16.2016 39.2095 15.5029 37.8191 15.2814 36.1627C15.238 35.8383 15.2323 34.8158 15.2721 34.4994C15.3973 33.5053 15.699 32.694 16.2528 31.862C16.6535 31.2601 17.4324 30.3339 18.104 29.6609C18.6647 29.0989 18.8553 28.9399 20.3126 27.8179C21.5405 26.8724 22.2518 26.3081 23.3233 25.4294C24.5964 24.3852 24.8542 24.1588 25.4556 23.5559C26.5775 22.4314 27.2686 21.5749 27.8331 20.6097C29.0745 18.4867 29.5722 15.8808 29.1915 13.4975C29.028 12.4742 28.7218 11.5058 28.2659 10.5704C28.0182 10.0621 27.8229 9.72071 27.4959 9.22448C26.7483 8.08992 26.0713 7.34152 24.7379 6.17539C23.3161 4.93201 22.2174 4.16177 20.7809 3.40125C20.5759 3.29271 20.3252 3.16554 20.2239 3.11862L20.0398 3.03331L19.9588 3.37102C19.5516 5.07029 19.1638 6.26275 18.7549 7.07363C18.4406 7.69694 18.1055 8.17798 17.3768 9.05241C16.0393 10.6571 15.0308 11.6837 13.0478 13.4588C12.3922 14.0457 11.6026 14.8457 11.0567 15.4763C9.44481 17.338 8.18811 19.4682 7.49263 21.5178C6.67915 23.9151 6.40876 26.6731 6.73161 29.28C7.06457 31.9687 8.06335 34.6565 9.56627 36.9084C10.0859 37.6869 10.6732 38.4427 11.3489 39.2026C12.2263 40.1891 13.5158 41.4607 14.5252 42.3347C14.7381 42.5191 14.9121 42.6748 14.9118 42.6808C14.9115 42.6868 14.8545 42.7171 14.7851 42.7482C14.5652 42.8464 14.2799 43.072 13.663 43.6353C12.7646 44.4555 11.8977 45.6316 11.2791 46.8692C10.6534 48.121 10.3385 49.2491 10.2466 50.5683C10.204 51.1801 10.237 52.5534 10.3252 53.838C10.4198 55.2153 10.7036 56.9334 11.0626 58.3022C11.2602 59.0556 11.4189 59.5608 11.6665 60.2236C11.8551 60.7285 12.1214 61.4876 12.4947 62.5848C12.8838 63.7284 12.9852 63.9558 13.215 64.2015C13.2603 64.2499 13.3103 64.2962 13.3646 64.3401C12.4625 64.3111 11.5684 64.282 10.6824 64.253C9.07937 64.2004 7.58147 64.1347 6.18869 64.0559C4.7959 64.0033 3.56079 63.9639 2.48336 63.9376C1.40592 63.885 0.578137 63.8325 0 63.7799V0.986435ZM74.5796 0.986435H119.871V18.8035H99.0978V24.6375H119.871V41.8239H99.0978V63.9376H74.5796V0.986435ZM126.77 0.986435H135.796L166.227 29.5648L197.486 0.986435H206.198V63.9376H180.3V43.5189L164.217 61.1783L148.568 43.9919V63.9376H126.77V0.986435ZM41.9483 29.7087C42.1342 29.1389 42.2397 28.6096 42.2957 27.9656C42.3023 27.8894 42.3051 27.8271 42.3018 27.8272C42.2986 27.8274 42.1711 27.9266 42.0187 28.0478C41.0705 28.8015 40.2462 29.2916 38.9506 29.8724C38.0779 30.2636 37.3561 30.6566 36.6471 31.1266C36.042 31.5278 35.6272 31.942 35.2233 32.5484C34.5328 33.585 34.2729 34.7328 34.4505 35.9614C34.4717 36.1083 34.4928 36.2323 34.4974 36.2368C34.5084 36.2479 34.7405 36.0935 34.9649 35.9258C35.2483 35.714 35.5054 35.4863 35.8477 35.144C36.0211 34.9705 36.1912 34.8141 36.2255 34.7963C36.2964 34.7596 36.3675 34.7695 36.3914 34.8195C36.4002 34.838 36.4078 35.2187 36.4082 35.6656C36.4091 36.5413 36.4133 36.5906 36.5245 37.0326C36.6248 37.4314 36.8636 38.1331 37.0875 38.687C37.3561 39.3517 37.7425 40.1476 38.179 40.9352C38.6175 41.7266 38.8605 42.3903 39.0463 43.3036C39.3837 44.9627 39.2382 46.6487 38.6235 48.203C38.1791 49.3266 37.5773 50.249 36.6758 51.1884C36.5707 51.298 36.4975 51.3803 36.5133 51.3714C36.5291 51.3624 36.6581 51.2778 36.8 51.1832C38.2157 50.2401 39.3729 49.0997 40.1104 47.9207C40.9326 46.6065 41.2419 45.3407 41.2103 43.4198C41.1908 42.2335 41.1272 41.8708 40.5566 39.6901C40.2795 38.6314 40.1566 37.7062 40.1324 36.4973C40.1186 35.8114 40.1607 34.7717 40.2326 34.0214C40.3416 32.8831 40.6157 32.0967 41.2305 31.159C41.6114 30.5781 41.7679 30.2618 41.9483 29.7087ZM19.9071 51.2665C20.0495 51.0189 20.0892 50.9641 20.1501 50.9309C20.2599 50.8709 20.3658 50.9185 20.5064 51.0912C20.6234 51.2349 20.7734 51.3519 21.2301 51.656C21.8547 52.0718 22.1299 52.246 22.4701 52.4411C22.8609 52.6652 23.6093 53.0418 23.9742 53.1979C24.2748 53.3265 24.5395 53.4562 24.5897 53.4996C24.6367 53.5401 24.6314 53.6223 24.5745 53.7346C24.5477 53.7875 24.5006 53.8963 24.4698 53.9762C24.4037 54.1477 24.2494 54.4121 24.0888 54.6286C23.781 55.0439 23.3146 55.479 22.702 55.9224C22.4017 56.1398 22.183 56.3249 21.9022 56.5995C21.1191 57.3654 20.7042 58.1249 20.5792 59.0212C20.5346 59.3413 20.549 59.9744 20.6084 60.3096C20.7299 60.9947 20.9177 61.4941 21.2913 62.1253C21.6755 62.7747 21.807 62.9142 22.0859 62.9686C22.1409 62.9794 22.4655 62.9948 22.8072 63.0029L23.4285 63.0176L23.5334 63.0715C23.7382 63.1767 23.9372 63.4319 24.0292 63.7074C24.0852 63.8753 24.082 63.9673 24.0185 64.0172C23.9249 64.0909 23.8517 64.0962 22.9851 64.0917C22.4292 64.0889 22.0385 64.0959 21.8227 64.1127C21.644 64.1265 21.3988 64.1343 21.2779 64.13C21.0861 64.123 21.0455 64.1155 20.9597 64.071C20.823 64.0002 20.7669 63.9222 20.6572 63.6512C20.555 63.3984 20.3119 62.9029 20.0377 62.3879C19.4381 61.262 19.0181 60.2015 18.7641 59.1721C18.543 58.2758 18.4755 57.6117 18.4924 56.498C18.5034 55.7732 18.5257 55.502 18.6222 54.9203C18.8167 53.7475 19.3466 52.2407 19.9071 51.2665ZM40.0398 51.9739C40.1027 51.938 40.2016 51.8891 40.2597 51.8653C40.3182 51.8412 40.4062 51.8216 40.4574 51.8214C40.5337 51.821 40.5592 51.8304 40.604 51.8753C40.6339 51.9052 40.6687 51.9675 40.6814 52.0139C40.7128 52.1285 40.6943 52.5279 40.6341 53.035C40.5782 53.506 40.5198 54.1347 40.4857 54.6314C40.4524 55.1158 40.4525 56.9972 40.4858 57.4418C40.5614 58.4514 40.6777 59.2969 40.8448 60.0515C41.0673 61.0564 41.3943 61.9807 41.6719 62.3895C41.9846 62.8502 42.431 63.1828 43.0127 63.3887L43.2134 63.4598L43.2486 63.5815C43.2969 63.7489 43.2998 63.9834 43.255 64.0996C43.2107 64.2143 43.0782 64.3333 42.9478 64.3753C42.7772 64.4303 42.323 64.4297 41.6364 64.3737C40.7758 64.3035 39.5063 64.1882 39.4972 64.1795C39.489 64.1716 37.5465 53.4151 37.5459 53.3743C37.5457 53.3574 37.5859 53.3504 37.6842 53.3503C37.9814 53.35 38.3265 53.2533 38.5729 53.1013C38.6545 53.051 38.8588 52.892 39.0271 52.7481C39.3795 52.4464 39.8735 52.0688 40.0398 51.9739Z" fill="white"/>
</svg>
